<svg xmlns="http://www.w3.org/2000/svg" xmlns:xlink="http://www.w3.org/1999/xlink" width="1320" height="506.836" viewBox="0 0 1320 506.836">
  <defs>
    <linearGradient id="linear-gradient" x1="0.835" y1="0.896" x2="0.013" y2="0.056" gradientUnits="objectBoundingBox">
      <stop offset="0" stop-color="#004b89"/>
      <stop offset="1" stop-color="#008bfd"/>
    </linearGradient>
    <linearGradient id="linear-gradient-2" x1="0.667" y1="0.45" x2="0.105" y2="0.848" gradientUnits="objectBoundingBox">
      <stop offset="0" stop-color="#fdb74d"/>
      <stop offset="1" stop-color="#5038a1"/>
    </linearGradient>
    <clipPath id="clip-path">
      <path id="Rectangle_652" data-name="Rectangle 652" d="M20.787,0H1299.213C1310.693,0,1320,8.4,1320,18.772V488.063c0,10.367-9.307,18.772-20.787,18.772H20.787C9.307,506.835,0,498.431,0,488.063V18.772C0,8.4,9.307,0,20.787,0Z" fill="url(#linear-gradient)"/>
    </clipPath>
    <clipPath id="clip-path-2">
      <path id="Rectangle_652-2" data-name="Rectangle 652" d="M1299.213,0H20.787C9.307,0,0,8.4,0,18.772V488.063c0,10.367,9.307,18.772,20.787,18.772H1299.213c11.48,0,20.787-8.4,20.787-18.772V18.772C1320,8.4,1310.693,0,1299.213,0Z" transform="translate(-10297.533 -13191)" fill="url(#linear-gradient-2)"/>
    </clipPath>
    <linearGradient id="linear-gradient-4" x1="0.5" x2="0.558" y2="0.705" gradientUnits="objectBoundingBox">
      <stop offset="0" stop-color="#5038a1" stop-opacity="0.502"/>
      <stop offset="1" stop-color="#8c6df2" stop-opacity="0"/>
    </linearGradient>
    <linearGradient id="linear-gradient-5" x1="0.5" x2="0.558" y2="0.705" gradientUnits="objectBoundingBox">
      <stop offset="0" stop-color="#fedc72"/>
      <stop offset="1" stop-color="#fedc72" stop-opacity="0.259"/>
    </linearGradient>
    <linearGradient id="linear-gradient-6" x1="0.5" y1="1" x2="0.558" y2="0.295" gradientUnits="objectBoundingBox">
      <stop offset="0" stop-color="#fdb74d"/>
      <stop offset="1" stop-color="#fedc72" stop-opacity="0.322"/>
    </linearGradient>
    <linearGradient id="linear-gradient-7" x1="0.5" x2="0.5" y2="1" gradientUnits="objectBoundingBox">
      <stop offset="0" stop-color="#5038a1"/>
      <stop offset="1" stop-color="#8c6df2" stop-opacity="0"/>
    </linearGradient>
    <linearGradient id="linear-gradient-8" x2="0.5" y2="1" xlink:href="#linear-gradient-4"/>
    <linearGradient id="linear-gradient-9" x1="0.5" x2="0.5" y2="1" gradientUnits="objectBoundingBox">
      <stop offset="0" stop-color="#5038a1"/>
      <stop offset="1" stop-color="#5038a1" stop-opacity="0"/>
    </linearGradient>
    <linearGradient id="linear-gradient-10" x1="0.5" y1="1" x2="0.5" gradientUnits="objectBoundingBox">
      <stop offset="0" stop-color="#fdb74d" stop-opacity="0.302"/>
      <stop offset="1" stop-color="#fedc72" stop-opacity="0"/>
    </linearGradient>
  </defs>
  <g id="Grupo_138078" data-name="Grupo 138078" transform="translate(14197 11486.729)">
    <g id="Grupo_138076" data-name="Grupo 138076" transform="translate(-14319.333 -11556.729)">
      <g id="Grupo_132622" data-name="Grupo 132622" transform="translate(-22 0.001)">
        <g id="Grupo_78302" data-name="Grupo 78302" transform="translate(144.333 70)">
          <path id="Rectangle_652-3" data-name="Rectangle 652" d="M1299.213,0H20.787C9.307,0,0,8.4,0,18.772V488.063c0,10.367,9.307,18.772,20.787,18.772H1299.213c11.48,0,20.787-8.4,20.787-18.772V18.772C1320,8.4,1310.693,0,1299.213,0Z" fill="url(#linear-gradient-2)"/>
        </g>
        <g id="Enmascarar_grupo_53" data-name="Enmascarar grupo 53" transform="translate(10441.866 13261)" clip-path="url(#clip-path-2)">
          <rect id="Rectángulo_33785" data-name="Rectángulo 33785" width="338.482" height="1342.571" transform="translate(-10270.187 -13304.036) rotate(-42)" opacity="0.8" fill="url(#linear-gradient-4)"/>
          <rect id="Rectángulo_33789" data-name="Rectángulo 33789" width="338.482" height="1342.571" transform="translate(-9814.187 -13304.036) rotate(-42)" opacity="0.8" fill="url(#linear-gradient-5)"/>
          <rect id="Rectángulo_33788" data-name="Rectángulo 33788" width="456.483" height="1080.571" transform="translate(-9326.324 -12289.016) rotate(-138)" opacity="0.8" fill="url(#linear-gradient-6)"/>
          <rect id="Rectángulo_33786" data-name="Rectángulo 33786" width="338.482" height="401.115" transform="translate(-10452.272 -13265.332) rotate(-42)" fill="url(#linear-gradient-7)"/>
          <rect id="Rectángulo_33787" data-name="Rectángulo 33787" width="1233.069" height="825.236" transform="translate(-9546.23 -11924.148) rotate(-141)" fill="url(#linear-gradient-8)"/>
          <circle id="Elipse_4731" data-name="Elipse 4731" cx="273" cy="273" r="273" transform="translate(-9943.001 -12927) rotate(90)" fill="url(#linear-gradient-9)"/>
          <circle id="Elipse_4732" data-name="Elipse 4732" cx="273" cy="273" r="273" transform="translate(-9765.699 -13464.418)" fill="url(#linear-gradient-10)"/>
        </g>
      </g>
    </g>
    <g id="Grupo_78297" data-name="Grupo 78297" transform="translate(-3088.085 965.275)">
      <path id="Trazado_99257" data-name="Trazado 99257" d="M416.049,103.656a.918.918,0,1,1-.918-.877A.9.9,0,0,1,416.049,103.656Z" transform="translate(-11447.97 -12119.038)" fill="#fff"/>
      <path id="Trazado_99258" data-name="Trazado 99258" d="M424.495,103.656a.918.918,0,1,1-.917-.877A.9.9,0,0,1,424.495,103.656Z" transform="translate(-11448.161 -12119.038)" fill="#fff"/>
      <path id="Trazado_99259" data-name="Trazado 99259" d="M432.941,103.656a.918.918,0,1,1-.917-.877A.9.9,0,0,1,432.941,103.656Z" transform="translate(-11448.352 -12119.038)" fill="#fff"/>
      <path id="Trazado_99260" data-name="Trazado 99260" d="M441.388,103.656a.918.918,0,1,1-.918-.877A.9.9,0,0,1,441.388,103.656Z" transform="translate(-11448.543 -12119.038)" fill="#fff"/>
      <path id="Trazado_99261" data-name="Trazado 99261" d="M449.834,103.656a.918.918,0,1,1-.917-.877A.9.9,0,0,1,449.834,103.656Z" transform="translate(-11448.733 -12119.038)" fill="#fff"/>
      <ellipse id="Elipse_3975" data-name="Elipse 3975" cx="0.917" cy="0.877" rx="0.917" ry="0.877" transform="translate(-11033.756 -12009.241)" fill="#fff"/>
      <path id="Trazado_99268" data-name="Trazado 99268" d="M424.495,111.164a.918.918,0,1,1-.917-.877A.9.9,0,0,1,424.495,111.164Z" transform="translate(-11448.161 -12119.528)" fill="#fff"/>
      <ellipse id="Elipse_3976" data-name="Elipse 3976" cx="0.917" cy="0.877" rx="0.917" ry="0.877" transform="translate(-11017.245 -12009.241)" fill="#fff"/>
      <path id="Trazado_99269" data-name="Trazado 99269" d="M441.388,111.164a.918.918,0,1,1-.918-.877A.9.9,0,0,1,441.388,111.164Z" transform="translate(-11448.543 -12119.528)" fill="#fff"/>
      <path id="Trazado_99270" data-name="Trazado 99270" d="M449.834,111.164a.918.918,0,1,1-.917-.877A.9.9,0,0,1,449.834,111.164Z" transform="translate(-11448.733 -12119.528)" fill="#fff"/>
      <path id="Trazado_99274" data-name="Trazado 99274" d="M416.049,118.672a.918.918,0,1,1-.918-.878A.9.9,0,0,1,416.049,118.672Z" transform="translate(-11447.97 -12120.019)" fill="#fff"/>
      <path id="Trazado_99275" data-name="Trazado 99275" d="M424.495,118.672a.918.918,0,1,1-.917-.878A.9.9,0,0,1,424.495,118.672Z" transform="translate(-11448.161 -12120.019)" fill="#fff"/>
      <path id="Trazado_99276" data-name="Trazado 99276" d="M432.941,118.672a.918.918,0,1,1-.917-.878A.9.9,0,0,1,432.941,118.672Z" transform="translate(-11448.352 -12120.019)" fill="#fff"/>
      <path id="Trazado_99277" data-name="Trazado 99277" d="M441.388,118.672a.918.918,0,1,1-.918-.878A.9.9,0,0,1,441.388,118.672Z" transform="translate(-11448.543 -12120.019)" fill="#fff"/>
      <path id="Trazado_99278" data-name="Trazado 99278" d="M449.834,118.672a.918.918,0,1,1-.917-.878A.9.9,0,0,1,449.834,118.672Z" transform="translate(-11448.733 -12120.019)" fill="#fff"/>
      <ellipse id="Elipse_3980" data-name="Elipse 3980" cx="0.917" cy="0.877" rx="0.917" ry="0.877" transform="translate(-11033.756 -11995.206)" fill="#fff"/>
      <path id="Trazado_99285" data-name="Trazado 99285" d="M424.495,126.18a.918.918,0,1,1-.917-.878A.9.9,0,0,1,424.495,126.18Z" transform="translate(-11448.161 -12120.509)" fill="#fff"/>
      <ellipse id="Elipse_3981" data-name="Elipse 3981" cx="0.917" cy="0.877" rx="0.917" ry="0.877" transform="translate(-11017.245 -11995.206)" fill="#fff"/>
      <path id="Trazado_99286" data-name="Trazado 99286" d="M441.388,126.18a.918.918,0,1,1-.918-.878A.9.9,0,0,1,441.388,126.18Z" transform="translate(-11448.543 -12120.509)" fill="#fff"/>
      <path id="Trazado_99287" data-name="Trazado 99287" d="M449.834,126.18a.918.918,0,1,1-.917-.878A.9.9,0,0,1,449.834,126.18Z" transform="translate(-11448.733 -12120.509)" fill="#fff"/>
      <ellipse id="Elipse_3985" data-name="Elipse 3985" cx="0.917" cy="0.877" rx="0.917" ry="0.877" transform="translate(-11033.756 -11988.189)" fill="#fff"/>
      <path id="Trazado_99291" data-name="Trazado 99291" d="M424.495,133.688a.918.918,0,1,1-.917-.878A.9.9,0,0,1,424.495,133.688Z" transform="translate(-11448.161 -12120.999)" fill="#fff"/>
      <ellipse id="Elipse_3986" data-name="Elipse 3986" cx="0.917" cy="0.877" rx="0.917" ry="0.877" transform="translate(-11017.245 -11988.189)" fill="#fff"/>
      <path id="Trazado_99292" data-name="Trazado 99292" d="M441.388,133.688a.918.918,0,1,1-.918-.878A.9.9,0,0,1,441.388,133.688Z" transform="translate(-11448.543 -12120.999)" fill="#fff"/>
      <path id="Trazado_99293" data-name="Trazado 99293" d="M449.834,133.688a.918.918,0,1,1-.917-.878A.9.9,0,0,1,449.834,133.688Z" transform="translate(-11448.733 -12120.999)" fill="#fff"/>
    </g>
    <g id="Grupo_80290" data-name="Grupo 80290" transform="translate(-14166.618 -11503.411)">
      <g id="Elipse_4817" data-name="Elipse 4817" opacity="0.26">
        <circle id="Elipse_4735" data-name="Elipse 4735" cx="12" cy="12" r="12" transform="translate(611.618 467.601)" fill="none"/>
        <circle id="Elipse_4736" data-name="Elipse 4736" cx="10.5" cy="10.5" r="10.5" transform="translate(613.118 469.101)" fill="none" stroke="#fff" stroke-width="3"/>
      </g>
      <g id="Elipse_4818" data-name="Elipse 4818" opacity="0.26">
        <circle id="Elipse_4737" data-name="Elipse 4737" cx="12" cy="12" r="12" transform="translate(1183.618 75.601)" fill="none"/>
        <circle id="Elipse_4738" data-name="Elipse 4738" cx="10.5" cy="10.5" r="10.5" transform="translate(1185.118 77.101)" fill="none" stroke="#fff" stroke-width="3"/>
      </g>
      <g id="Elipse_4820" data-name="Elipse 4820" opacity="0.26">
        <circle id="Elipse_4739" data-name="Elipse 4739" cx="12" cy="12" r="12" transform="translate(454.618 370.601)" fill="none"/>
        <circle id="Elipse_4740" data-name="Elipse 4740" cx="10.5" cy="10.5" r="10.5" transform="translate(456.118 372.101)" fill="none" stroke="#fff" stroke-width="3"/>
      </g>
      <g id="Elipse_4824" data-name="Elipse 4824" opacity="0.26">
        <circle id="Elipse_4741" data-name="Elipse 4741" cx="41" cy="41" r="41" transform="translate(31.618 377.601)" fill="none"/>
        <circle id="Elipse_4742" data-name="Elipse 4742" cx="38.5" cy="38.5" r="38.5" transform="translate(34.118 380.101)" fill="none" stroke="#fff" stroke-linecap="round" stroke-width="5" stroke-dasharray="10 18"/>
      </g>
      <g id="Elipse_4825" data-name="Elipse 4825" opacity="0.26">
        <circle id="Elipse_4743" data-name="Elipse 4743" cx="41" cy="41" r="41" transform="translate(588.618 48.601)" fill="none"/>
        <circle id="Elipse_4744" data-name="Elipse 4744" cx="38.5" cy="38.5" r="38.5" transform="translate(591.118 51.101)" fill="none" stroke="#fff" stroke-linecap="round" stroke-width="5" stroke-dasharray="10 18"/>
      </g>
      <g id="Elipse_4826" data-name="Elipse 4826" opacity="0.26">
        <circle id="Elipse_4745" data-name="Elipse 4745" cx="41" cy="41" r="41" transform="translate(1207.618 349.601)" fill="none"/>
        <circle id="Elipse_4746" data-name="Elipse 4746" cx="38.5" cy="38.5" r="38.5" transform="translate(1210.118 352.101)" fill="none" stroke="#fff" stroke-linecap="round" stroke-width="5" stroke-dasharray="10 18"/>
      </g>
      <circle id="Elipse_4821" data-name="Elipse 4821" cx="5" cy="5" r="5" transform="translate(143.618 476.601)" fill="#fff" opacity="0.26" style="isolation: isolate"/>
      <circle id="Elipse_4827" data-name="Elipse 4827" cx="5" cy="5" r="5" transform="translate(694.618 394.601)" fill="#fff" opacity="0.26" style="isolation: isolate"/>
      <circle id="Elipse_4822" data-name="Elipse 4822" cx="5" cy="5" r="5" transform="translate(547.618 123.601)" fill="#fff" opacity="0.26" style="isolation: isolate"/>
      <circle id="Elipse_4823" data-name="Elipse 4823" cx="8.5" cy="8.5" r="8.5" transform="translate(1254.618 146.601)" fill="#fff" opacity="0.26" style="isolation: isolate"/>
    </g>
  </g>
</svg>
