<svg xmlns="http://www.w3.org/2000/svg" width="1240.283" height="454.757" viewBox="0 0 1240.283 454.757">
  <g id="Grupo_140632" data-name="Grupo 140632" transform="translate(6748 9890.757)">
    <g id="Rectángulo_89626" data-name="Rectángulo 89626" transform="translate(-6643 -9890.757)" fill="#dee4f0" stroke="#00a4b8" stroke-width="3">
      <rect width="1030" height="49.738" stroke="none"/>
      <rect x="1.5" y="1.5" width="1027" height="46.738" fill="none"/>
    </g>
    <text id="Características_de_la_infraestructura_tecnológica" data-name="Características de la infraestructura tecnológica" transform="translate(-6128 -9853.757)" font-size="31" font-family="Roboto-Bold, Roboto" font-weight="700"><tspan x="-437.088" y="0">CARACTERÍSTICAS DE LA INFRAESTRUCTURA TECNOLÓGICA</tspan></text>
    <g id="Sustracción_5" data-name="Sustracción 5" transform="translate(-6748 -9590.757)" fill="#feca2e">
      <path d="M 279.4104919433594 153.2568359375 L 2.696925401687622 153.2568359375 L 49.31820678710938 78.16699981689453 L 49.80941772460938 77.37579345703125 L 49.31816482543945 76.58458709716797 L 2.699729681015015 1.500001311302185 L 279.4089965820312 1.500001311302185 L 326.5178527832031 77.3758544921875 L 279.4104919433594 153.2568359375 Z" stroke="none"/>
      <path d="M 278.576171875 151.7568206787109 L 324.7522888183594 77.37591552734375 L 278.57470703125 3.000008821487427 L 5.396720409393311 3.000008821487427 L 51.57502746582031 77.37582397460938 L 5.393850326538086 151.7568206787109 L 278.576171875 151.7568206787109 M 280.2432861328125 154.7568206787109 L 2.655584103194997e-05 154.7568206787109 L 48.04384613037109 77.37582397460938 L 0.00284473760984838 8.877840627974365e-06 L 280.2432861328125 8.877840627974365e-06 L 328.283447265625 77.37582397460938 L 280.2432861328125 154.7568206787109 Z" stroke="none" fill="#cba124"/>
    </g>
    <g id="Sustracción_6" data-name="Sustracción 6" transform="translate(-6446 -9590.757)" fill="#feca2e">
      <path d="M 279.4104919433594 153.2568359375 L 2.696925401687622 153.2568359375 L 49.31820678710938 78.16699981689453 L 49.80941772460938 77.37579345703125 L 49.31816482543945 76.58458709716797 L 2.699729681015015 1.500001311302185 L 279.4089965820312 1.500001311302185 L 326.5178527832031 77.3758544921875 L 279.4104919433594 153.2568359375 Z" stroke="none"/>
      <path d="M 278.576171875 151.7568206787109 L 324.7522888183594 77.37591552734375 L 278.57470703125 3.000008821487427 L 5.396720409393311 3.000008821487427 L 51.57502746582031 77.37582397460938 L 5.393850326538086 151.7568206787109 L 278.576171875 151.7568206787109 M 280.2432861328125 154.7568206787109 L 2.655584103194997e-05 154.7568206787109 L 48.04384613037109 77.37582397460938 L 0.00284473760984838 8.877840627974365e-06 L 280.2432861328125 8.877840627974365e-06 L 328.283447265625 77.37582397460938 L 280.2432861328125 154.7568206787109 Z" stroke="none" fill="#cba124"/>
    </g>
    <g id="Sustracción_7" data-name="Sustracción 7" transform="translate(-6145 -9590.757)" fill="#feca2e">
      <path d="M 279.4104919433594 153.2568359375 L 2.696925401687622 153.2568359375 L 49.31820678710938 78.16699981689453 L 49.80941772460938 77.37579345703125 L 49.31816482543945 76.58458709716797 L 2.699729681015015 1.500001311302185 L 279.4089965820312 1.500001311302185 L 326.5178527832031 77.3758544921875 L 279.4104919433594 153.2568359375 Z" stroke="none"/>
      <path d="M 278.576171875 151.7568206787109 L 324.7522888183594 77.37591552734375 L 278.57470703125 3.000008821487427 L 5.396720409393311 3.000008821487427 L 51.57502746582031 77.37582397460938 L 5.393850326538086 151.7568206787109 L 278.576171875 151.7568206787109 M 280.2432861328125 154.7568206787109 L 2.655584103194997e-05 154.7568206787109 L 48.04384613037109 77.37582397460938 L 0.00284473760984838 8.877840627974365e-06 L 280.2432861328125 8.877840627974365e-06 L 328.283447265625 77.37582397460938 L 280.2432861328125 154.7568206787109 Z" stroke="none" fill="#cba124"/>
    </g>
    <g id="Rectángulo_89627" data-name="Rectángulo 89627" transform="translate(-6643 -9825.757)" fill="#dee4f0" stroke="#00a4b8" stroke-width="3">
      <rect width="1030" height="154.738" stroke="none"/>
      <rect x="1.5" y="1.5" width="1027" height="151.738" fill="none"/>
    </g>
    <text id="Si_la_infraestructura_de_TI_es_versátil_segura_y_confiable_puede_ayudar_a_la_compañía_a_lograr_las_metas_y_poseer_una_diferencia_competitiva_en_el_mercado._Pero_si_no_es_implementada_de_la_manera_correcta_la_empresa_puede_afrontar_problemas_en_la_conex" data-name="Si la infraestructura de TI es versátil, segura y confiable, puede ayudar a la compañía a lograr las metas y poseer una diferencia competitiva en el mercado. Pero, si no es implementada de la manera correcta, la empresa puede afrontar problemas en la conex" transform="translate(-6610 -9794.757)" fill="#12263f" font-size="16" font-family="Roboto-Regular, Roboto"><tspan x="0" y="17">Si la infraestructura de TI es versátil, segura y confiable, puede ayudar a la compañía a lograr las metas y poseer una diferencia </tspan><tspan x="0" y="41">competitiva en el mercado. Pero, si no es implementada de la manera correcta, la empresa puede afrontar problemas en la conexión, </tspan><tspan x="0" y="65">producción y seguridad, como, por ejemplo, dificultades y vulnerabilidad del sistema. Normalmente, poseer una infraestructura </tspan><tspan x="0" y="89">implementada en forma correcta es un factor primordial para conocer si la empresa es rentable o no.</tspan></text>
    <g id="Sustracción_8" data-name="Sustracción 8" transform="translate(-5836 -9590.757)" fill="#feca2e">
      <path d="M 279.4104919433594 153.2568359375 L 2.696925401687622 153.2568359375 L 49.31820678710938 78.16699981689453 L 49.80941772460938 77.37579345703125 L 49.31816482543945 76.58458709716797 L 2.699729681015015 1.500001311302185 L 279.4089965820312 1.500001311302185 L 326.5178527832031 77.3758544921875 L 279.4104919433594 153.2568359375 Z" stroke="none"/>
      <path d="M 278.576171875 151.7568206787109 L 324.7522888183594 77.37591552734375 L 278.57470703125 3.000008821487427 L 5.396720409393311 3.000008821487427 L 51.57502746582031 77.37582397460938 L 5.393850326538086 151.7568206787109 L 278.576171875 151.7568206787109 M 280.2432861328125 154.7568206787109 L 2.655584103194997e-05 154.7568206787109 L 48.04384613037109 77.37582397460938 L 0.00284473760984838 8.877840627974365e-06 L 280.2432861328125 8.877840627974365e-06 L 328.283447265625 77.37582397460938 L 280.2432861328125 154.7568206787109 Z" stroke="none" fill="#cba124"/>
    </g>
    <g id="Rectángulo_89628" data-name="Rectángulo 89628" transform="translate(-6328 -9655.757)" fill="#feca2e" stroke="#98791b" stroke-width="3">
      <rect width="400" height="49.738" stroke="none"/>
      <rect x="1.5" y="1.5" width="397" height="46.738" fill="none"/>
    </g>
    <text id="Con_esta_infraestructura_un_negocio_puede:" data-name="Con esta infraestructura, un negocio puede:" transform="translate(-6292 -9641.757)" fill="#12263f" font-size="16" font-family="Roboto-Bold, Roboto" font-weight="700"><tspan x="0" y="17">Con esta infraestructura, un negocio puede:</tspan></text>
    <text id="Brindar_una_experiencia_significativa_al_cliente_prestando_un_ingreso_al_sitio_web_y_tienda_virtual_sin_interrupciones." data-name="Brindar una experiencia significativa al cliente prestando un ingreso al sitio web y tienda virtual sin interrupciones." transform="translate(-6675 -9571.757)" fill="#12263f" font-size="16" font-family="Roboto-Bold, Roboto" font-weight="700"><tspan x="0" y="17">Brindar una experiencia </tspan><tspan x="0" y="41">significativa al cliente </tspan><tspan x="0" y="65">prestando un ingreso al </tspan><tspan x="0" y="89">sitio web y tienda virtual </tspan><tspan x="0" y="113">sin interrupciones.</tspan></text>
    <text id="Crear_y_promocionar_soluciones_de_manera_rápida." data-name="Crear y promocionar soluciones de manera rápida." transform="translate(-6373 -9547.757)" fill="#12263f" font-size="16" font-family="Roboto-Bold, Roboto" font-weight="700"><tspan x="0" y="17">Crear y promocionar </tspan><tspan x="0" y="41">soluciones de manera </tspan><tspan x="0" y="65">rápida.</tspan></text>
    <text id="Compilar_información_en_tiempo_real_para_tomar_decisiones_rápidamente." data-name="Compilar información en tiempo real para tomar decisiones rápidamente." transform="translate(-6072 -9547.757)" fill="#12263f" font-size="16" font-family="Roboto-Bold, Roboto" font-weight="700"><tspan x="0" y="17">Compilar información en </tspan><tspan x="0" y="41">tiempo real para tomar </tspan><tspan x="0" y="65">decisiones rápidamente.</tspan></text>
    <text id="Optimizar_la_producción_en_los_empleados." data-name="Optimizar la producción en los empleados." transform="translate(-5763 -9535.757)" fill="#12263f" font-size="16" font-family="Roboto-Bold, Roboto" font-weight="700"><tspan x="0" y="17">Optimizar la producción </tspan><tspan x="0" y="41">en los empleados.</tspan></text>
    <path id="Trazado_210269" data-name="Trazado 210269" d="M-8091-9865.131h-20v232.546h335" transform="translate(1448 -9.172)" fill="none" stroke="#04a5b9" stroke-width="3"/>
    <path id="Trazado_210270" data-name="Trazado 210270" d="M-8091-9757.273h-45.31v127.143H-7776" transform="translate(1448 -0.757)" fill="none" stroke="#06a6b9" stroke-width="3"/>
    <path id="Trazado_210271" data-name="Trazado 210271" d="M-7796-9865.131h20v232.546h-335" transform="translate(2183 -9.172)" fill="none" stroke="#04a5b9" stroke-width="3"/>
    <path id="Trazado_210272" data-name="Trazado 210272" d="M-7821.311-9757.273H-7776v127.143h-360.31" transform="translate(2208.311 -0.757)" fill="none" stroke="#06a6b9" stroke-width="3"/>
    <path id="Trazado_210273" data-name="Trazado 210273" d="M-7783.612-9620H-8039.47v31.478" transform="translate(1455.611 -0.757)" fill="none" stroke="#98791b" stroke-width="3"/>
    <path id="Trazado_210274" data-name="Trazado 210274" d="M-8039.47-9620h255.858v31.478" transform="translate(2111.471 -0.757)" fill="none" stroke="#98791b" stroke-width="3"/>
    <path id="Trazado_210275" data-name="Trazado 210275" d="M-7729.858-9588.522v-19.205" transform="translate(1448 -0.757)" fill="none" stroke="#98791b" stroke-width="3"/>
    <path id="Trazado_210276" data-name="Trazado 210276" d="M-7729.858-9588.522v-19.205" transform="translate(1748.858 -0.757)" fill="none" stroke="#98791b" stroke-width="3"/>
  </g>
</svg>
