<svg id="Grupo_136732" data-name="Grupo 136732" xmlns="http://www.w3.org/2000/svg" xmlns:xlink="http://www.w3.org/1999/xlink" width="258" height="258.662" viewBox="0 0 258 258.662">
  <defs>
    <clipPath id="clip-path">
      <rect id="Rectángulo_45554" data-name="Rectángulo 45554" width="258" height="258.662" fill="none"/>
    </clipPath>
    <clipPath id="clip-path-3">
      <rect id="Rectángulo_45548" data-name="Rectángulo 45548" width="244.711" height="234.641" transform="translate(6.708 4.91)" fill="none"/>
    </clipPath>
    <clipPath id="clip-path-4">
      <rect id="Rectángulo_45549" data-name="Rectángulo 45549" width="33.163" height="33.163" transform="translate(215.564 24.938)" fill="none"/>
    </clipPath>
    <clipPath id="clip-path-5">
      <rect id="Rectángulo_45550" data-name="Rectángulo 45550" width="41.551" height="41.551" transform="translate(15.943 206.57)" fill="none"/>
    </clipPath>
  </defs>
  <g id="Grupo_136743" data-name="Grupo 136743" clip-path="url(#clip-path)">
    <g id="Grupo_136742" data-name="Grupo 136742">
      <g id="Grupo_136741" data-name="Grupo 136741" clip-path="url(#clip-path)">
        <path id="Trazado_200764" data-name="Trazado 200764" d="M226.163,37.933a98.939,98.939,0,0,1,12.3,18.385c25.574,47.121,13.163,97.717,9.059,113.339-6.63,25.205-11.579,46.531-29.318,63.8-40.3,39.232-174.539,28.478-192.146-3.6-17.622-32.1-21.6-61.129-22.077-93.143-.06-1.269-.078-2.213-.1-3.04-.194-8.011-.646-57.593,35.192-95.177a119.154,119.154,0,0,1,27.84-21.534C116.441-10.7,189.343-5.085,226.163,37.933" fill="#e5e1f1"/>
        <g id="Grupo_136734" data-name="Grupo 136734" opacity="0.61">
          <g id="Grupo_136733" data-name="Grupo 136733">
            <g id="Grupo_136732-2" data-name="Grupo 136732" clip-path="url(#clip-path-3)">
              <path id="Trazado_200765" data-name="Trazado 200765" d="M251.182,235.664a4.025,4.025,0,0,1,.129.4,2.7,2.7,0,0,1-2.828,3.484,4.958,4.958,0,0,1-4.624-3.474,92.809,92.809,0,0,0-7.812-19.76,110.152,110.152,0,0,0-12.361-18.561l-.9-1.1-.93-1.075c-.616-.719-1.254-1.421-1.9-2.12q-1.912-2.107-3.954-4.1c-.672-.67-1.378-1.308-2.063-1.961s-1.41-1.269-2.11-1.9c-.728-.609-1.433-1.234-2.178-1.824s-1.468-1.189-2.224-1.749-1.5-1.135-2.263-1.67c-.382-.269-.759-.545-1.145-.805l-1.16-.772c-.765-.529-1.561-.99-2.336-1.486-.788-.467-1.575-.933-2.366-1.375s-1.585-.876-2.388-1.261c-.4-.2-.8-.4-1.2-.593l-1.2-.548c-.2-.09-.4-.187-.6-.272l-.622-.253-1.239-.5c-.837-.306-1.664-.63-2.5-.91a86.025,86.025,0,0,0-20.547-4.149c-6.98-.621-14.049-.669-21.389-.706-3.673-.023-7.409-.022-11.262-.106-1.921-.033-3.882-.109-5.862-.2-1-.056-1.993-.1-3.008-.17l-2.957-.206c-7.571-.54-15.4-1.2-23.538-2.359a166.34,166.34,0,0,1-25.521-5.57A117.749,117.749,0,0,1,60.705,152.9a101.945,101.945,0,0,1-13.875-7.55c-2.289-1.492-4.548-3.108-6.749-4.835-1.1-.862-2.183-1.76-3.255-2.677-.532-.461-1.049-.906-1.586-1.4s-1.077-.985-1.6-1.49a82.934,82.934,0,0,1-11.117-13.067c-.793-1.162-1.56-2.333-2.281-3.523-.386-.627-.662-1.11-.983-1.641l-.927-1.573c-.615-1.051-1.2-2.127-1.769-3.208s-1.108-2.183-1.657-3.28a87.266,87.266,0,0,1-5.27-13.731A73.5,73.5,0,0,1,6.969,80.713a67.826,67.826,0,0,1,7.994-38.378A86.554,86.554,0,0,1,29.176,23a104.1,104.1,0,0,1,8.737-8.075c1.552-1.274,3.152-2.512,4.839-3.729.848-.609,1.711-1.216,2.631-1.826.461-.307.93-.612,1.441-.928l.8-.487.457-.263.281-.154.425-.217C63.113.893,83.4,7.772,94.106,22.68s7.764,32.2-6.56,38.63l.143-.087c.033-.023.012-.02.012-.02l-.013-.007c-.009-.011-.065,0-.1,0-.1.015-.2.034-.3.059-.225.048-.485.124-.744.2-.527.153-1.088.336-1.649.535-1.131.4-2.287.858-3.428,1.347a62.117,62.117,0,0,0-6.649,3.316,52.94,52.94,0,0,0-11.123,8.332,33.107,33.107,0,0,0-7.014,10,24.2,24.2,0,0,0-1.717,5.576,26.666,26.666,0,0,0-.4,6.115,34.124,34.124,0,0,0,.991,6.766c.167.594.306,1.19.485,1.795.2.607.364,1.216.576,1.832l.625,1.789c.153.47.337.943.517,1.413a26.878,26.878,0,0,0,3.015,5.455c.152.221.314.435.473.651l.546.691c.376.462.761.923,1.172,1.375.816.907,1.7,1.806,2.66,2.691A62.2,62.2,0,0,0,80.5,130.888q2.217,1.1,4.568,2.089t4.807,1.912c3.269,1.224,6.661,2.352,10.133,3.4,6.948,2.1,14.2,3.874,21.675,5.592l2.683.613c.865.2,1.746.378,2.626.569,1.772.361,3.558.714,5.381,1.043,3.631.663,7.359,1.273,11.152,1.875,7.587,1.22,15.479,2.474,23.582,4.437a113.684,113.684,0,0,1,24.4,8.648c.995.489,1.976,1.028,2.957,1.546.976.557,1.935,1.082,2.911,1.667l1.456.866c.479.3.948.6,1.421.9.952.593,1.861,1.24,2.777,1.867a96.879,96.879,0,0,1,10.11,8.257,129.913,129.913,0,0,1,16.333,18.64,162.188,162.188,0,0,1,12.385,20.048,200.665,200.665,0,0,1,9.326,20.781Z" fill="#fdb74d"/>
            </g>
          </g>
        </g>
        <g id="Grupo_136737" data-name="Grupo 136737" opacity="0.7" style="isolation: isolate">
          <g id="Grupo_136736" data-name="Grupo 136736">
            <g id="Grupo_136735" data-name="Grupo 136735" clip-path="url(#clip-path-4)">
              <path id="Trazado_200766" data-name="Trazado 200766" d="M225.89,26.168a16.577,16.577,0,1,1-9.1,21.607,16.577,16.577,0,0,1,9.1-21.607" fill="#5038a1"/>
            </g>
          </g>
        </g>
        <path id="Trazado_200767" data-name="Trazado 200767" d="M232.109,31.354a5.526,5.526,0,1,1-3.032,7.2A5.525,5.525,0,0,1,232.109,31.354Z" fill="none" stroke="#fff" stroke-width="1.441"/>
        <path id="Trazado_200768" data-name="Trazado 200768" d="M188.591,21.33a3.363,3.363,0,1,1-1.845,4.384,3.363,3.363,0,0,1,1.845-4.384" fill="#fdb74d"/>
        <path id="Trazado_200769" data-name="Trazado 200769" d="M188.863,22a2.643,2.643,0,1,1-1.45,3.445A2.643,2.643,0,0,1,188.863,22" fill="#fdb74d"/>
        <path id="Trazado_200770" data-name="Trazado 200770" d="M188.863,22a2.643,2.643,0,1,1-1.45,3.445A2.643,2.643,0,0,1,188.863,22Z" fill="none" stroke="#8c6df2" stroke-width="1.441"/>
        <path id="Trazado_200771" data-name="Trazado 200771" d="M209.811,39.662a2.162,2.162,0,1,1-1.186,2.818,2.161,2.161,0,0,1,1.186-2.818" fill="#fdb74d"/>
        <g id="Grupo_136740" data-name="Grupo 136740" opacity="0.5">
          <g id="Grupo_136739" data-name="Grupo 136739">
            <g id="Grupo_136738" data-name="Grupo 136738" clip-path="url(#clip-path-5)">
              <path id="Trazado_200772" data-name="Trazado 200772" d="M57.494,227.346a20.775,20.775,0,1,0-20.776,20.776,20.776,20.776,0,0,0,20.776-20.776" fill="#fdb74d"/>
            </g>
          </g>
        </g>
        <circle id="Elipse_6190" data-name="Elipse 6190" cx="18.162" cy="18.162" r="18.162" transform="translate(18.557 209.184)" fill="none" stroke="#fff" stroke-linecap="round" stroke-width="2.046" stroke-dasharray="1.535 4.093"/>
        <path id="Trazado_200773" data-name="Trazado 200773" d="M146.824,25.083c.752-2.912,1.016-5.668-.5-5.732-1.122-.046-4.181,1.306-5.156,1.75-1.249.57-2.712.564-3.929,1.161-3.455,1.7-.224,5.061,1.815,6.5,1.263.892,4.254,4.7,5.346,2.97a34.328,34.328,0,0,0,2.422-6.653" fill="#333"/>
        <path id="Trazado_200774" data-name="Trazado 200774" d="M156.323,68.915l2.3.573s5.529,27.442,2.953,33.842-6.483.43-7.662-.191S143.3,71.664,143.3,71.664Z" fill="#d39477"/>
        <path id="Trazado_200775" data-name="Trazado 200775" d="M163.394,99.969l-3.9-34.593c-2.233-8.4-10.773-5.246-10.773-5.246-6.939,2.343-6.038,10.243-6.038,10.243l8.44,32.8s1.636,4.991,8.176,4.526c0,0,4.781-.993,4.1-7.73" fill="#1b1d21"/>
        <path id="Trazado_200776" data-name="Trazado 200776" d="M158.961,97.8s26.276,17.676,31.9,20.551c0,0,2.016,3.622-.7,3.046-5.413-1.15-35.173-14.124-36.785-16.243s5.576-7.354,5.576-7.354" fill="#d39477"/>
        <path id="Trazado_200777" data-name="Trazado 200777" d="M199.894,123.9l-2.2-.217s3.947,1.319,5.336.107c0,0,.347-.183-.136-.687a30.784,30.784,0,0,1-5.079-.937A22.438,22.438,0,0,0,203.8,123.2a.657.657,0,0,0,.013-1.233c.819-.253.174-.828.174-.828a14.079,14.079,0,0,0-2.328-1.1,56.994,56.994,0,0,1-5.336-2.534s2.43-1.352,1.648-2.638l-3.714,1.63-3.389,1.851-.695,3.046,3.31,1.7a21.134,21.134,0,0,0,5.03,1.748s5.334.191,1.383-.94" fill="#d39477"/>
        <rect id="Rectángulo_45551" data-name="Rectángulo 45551" width="5.511" height="3.167" transform="translate(186.495 120.991) rotate(-66.956)" fill="#fff"/>
        <path id="Trazado_200778" data-name="Trazado 200778" d="M162.157,94.506s17.515,12.986,27.634,21.557a22.3,22.3,0,0,1-2.3,5.409s-27.476-10.234-35.46-15.9c0,0,5.04-13.959,10.125-11.07" fill="#1b1d21"/>
        <path id="Trazado_200779" data-name="Trazado 200779" d="M153.6,233.59s1.23,4.789,2.741,6.087,7.28,3.209,7.28,3.209l3.195.459s2.22,1.594-3.875,3.267-16.794-3.379-16.794-3.379l2.411-9.788Z" fill="#2f1c1a"/>
        <path id="Trazado_200780" data-name="Trazado 200780" d="M121.033,246.759c-1.076-1.677-3.331-10.814-3.331-10.814l-4.98-.151-3.117,10.06s-.5,1.684.517,2.315c0,0,6.212,2.156,11.517-.1a3.663,3.663,0,0,0-.606-1.307" fill="#2f1c1a"/>
        <path id="Trazado_200781" data-name="Trazado 200781" d="M151.913,108.021l6.359-38.87s2.192-5.843-2.191-8.764l-16.7-7.851H127.6L107.515,64.4l13.162,43.617Z" fill="#e1a786"/>
        <path id="Trazado_200782" data-name="Trazado 200782" d="M120.677,108.021s-3.607,8.236-4.478,27.17c0,0,27.15,8.515,35.666,0l.048-27.17Z" fill="#1c2d4e"/>
        <path id="Trazado_200783" data-name="Trazado 200783" d="M138.475,135.109a11.143,11.143,0,1,1-11.222-11.421,11.324,11.324,0,0,1,11.222,11.421" fill="#23252b"/>
        <path id="Trazado_200784" data-name="Trazado 200784" d="M116.211,136.674l-2.953,48.384s5.227,12.584,14.483,4.847l10.048-49.772s-4.877-16.728-21.578-3.459" fill="#23252b"/>
        <path id="Trazado_200785" data-name="Trazado 200785" d="M113.258,185.058s-2.785,9.084-1.958,24.9l-.827,29.574,10.249.2,6.969-49.683s-6.977-16.1-14.433-5" fill="#23252b"/>
        <path id="Trazado_200786" data-name="Trazado 200786" d="M151.813,135.222c.645,6.32-1.613,11.728-7.733,12.353a11.51,11.51,0,0,1-2.335-22.89c6.12-.625,9.423,4.216,10.068,10.537" fill="#23252b"/>
        <path id="Trazado_200787" data-name="Trazado 200787" d="M134.444,143.544l5.622,44.578s12.189,5.4,14.354-2.159c0,0-.283-33.957-2.607-50.741,0,0-15.051-7.332-17.369,8.322" fill="#23252b"/>
        <path id="Trazado_200788" data-name="Trazado 200788" d="M140.066,186.3s-1.711,6.539.136,18.475l4.23,33.787,10.8-.572-.808-53.819s-6.724-7.052-14.355,2.129" fill="#23252b"/>
        <path id="Trazado_200789" data-name="Trazado 200789" d="M110.1,104.557c-2.3,23.021-1.355,24.544-1.116,33.777,0,0-1.224,3.249-3.31,1.425s-5.418-32.481-4.368-34.926c1.56-3.628,8.794-.276,8.794-.276" fill="#e1a786"/>
        <path id="Trazado_200790" data-name="Trazado 200790" d="M108.649,137.416l3.238,3.238,2.75,4.031c-1.361.915-2.788-1.34-2.788-1.34a31.7,31.7,0,0,0,2.618,6.689c.418,1.272-.785,1.178-.785,1.178-1.343-1.379-3.063-5.446-3.063-5.446a61.693,61.693,0,0,0,2.289,6.284c.155,1.108-.955.793-.955.793-2.286-1.352-3.043-6.285-3.043-6.285a35.5,35.5,0,0,0,1.7,5.715c-.265.761-.634.5-.634.5-1.975-.793-2.691-5.544-2.691-5.544L107.6,149c.646,2.387-.834,1.771-.834,1.771l-.533-1.195a14.439,14.439,0,0,1-1.09-6.982l.01-4.3Z" fill="#e1a786"/>
        <path id="Trazado_200791" data-name="Trazado 200791" d="M115.2,65.119c-7.753-1.765-10.4,5.4-10.4,5.4s-3.893,23.852-3.846,34.074c.032,6.9,8.45,1.341,9,.129,1.219-2.676,10.063-31.406,10.063-31.406s.461-6.75-4.817-8.2" fill="#e1a786"/>
        <path id="Trazado_200792" data-name="Trazado 200792" d="M111.264,105.124l10.055-32.6c-.227-8.1-8.156-9.313-8.156-9.313-7.457-.713-9.091,5.7-9.091,5.7l-3.607,32.635s-1.222,7.335,3.015,7.44c0,0,7.112.773,7.784-3.866" fill="#1f2127"/>
        <rect id="Rectángulo_45552" data-name="Rectángulo 45552" width="5.51" height="3.166" transform="translate(104.079 136.403) rotate(-11.292)" fill="#fff"/>
        <path id="Trazado_200793" data-name="Trazado 200793" d="M111.875,103.145s-1.3,27.386-1.772,32.986l-6.113,1.284s-5.527-27.444-3.525-35.865c0,0,7.989-4.358,11.41,1.595" fill="#1f2127"/>
        <path id="Trazado_200794" data-name="Trazado 200794" d="M127.537,43.951V56.543h13.315s-3.273-4.992-1.636-12.592Z" fill="#e1a786"/>
        <path id="Trazado_200795" data-name="Trazado 200795" d="M134.293,54.644c1.2.773,3.75,2.416,5.206,1.454a1.375,1.375,0,0,0,.631-.976,18.441,18.441,0,0,1-.914-11.17H127.537v1.141c1.458,3.685,3.327,7.341,6.756,9.551" fill="#cc8972"/>
        <path id="Trazado_200796" data-name="Trazado 200796" d="M127.219,44.127s-2.266-.984-4.832-6.593c0,0-5.57-6.632-1.622-14.162,0,0,2.334-6.368,13.639-4.586,0,0,1.016,17.066-7.185,25.341" fill="#e0a280"/>
        <path id="Trazado_200797" data-name="Trazado 200797" d="M141.143,47.533l.753-1.974,2.082-7.347a7.588,7.588,0,0,0,.107-3.109,7.632,7.632,0,0,1-.03-3.2c1.313-5.284-1.394-8.282-1.394-8.282-2.983-4.983-10.328-5.149-10.328-5.149-9.092.236-10.061,9.007-10.061,9.007-1.609,5.812,2.928,10.788,2.937,10.8.363.4.128,2.316.226,2.866.426,2.343,2.624,3.829,4.579,4.864a21.81,21.81,0,0,0,7.175,2.629c.92.107,3.521.031,3.954-1.1" fill="#e1a786"/>
        <path id="Trazado_200798" data-name="Trazado 200798" d="M118.516,106.965c.028,1.3-1.94,14.844-1.113,15.017,0,0,22.477,5.179,34.462,0l.048-13.961,6.36-38.87s2.191-5.843-2.191-8.763l-16.7-7.851,1.126,3.385-2.415,6.869L127.6,52.537,107.516,64.4q1.682,5.577,3.359,11.158c2.071,6.856,4.086,13.731,6.218,20.568,0,0,1.765,7.416,1.423,10.834" fill="#b4d7e5"/>
        <path id="Trazado_200799" data-name="Trazado 200799" d="M136.64,54.981l-.139,6.258L134.2,58.985Z" fill="#74acc7"/>
        <path id="Trazado_200800" data-name="Trazado 200800" d="M139.576,65.072a.894.894,0,1,1-.894-.893.893.893,0,0,1,.894.893" fill="#deecea"/>
        <path id="Trazado_200801" data-name="Trazado 200801" d="M139.576,81.287a.894.894,0,1,1-.894-.892.893.893,0,0,1,.894.892" fill="#deecea"/>
        <path id="Trazado_200802" data-name="Trazado 200802" d="M139.576,97.5a.894.894,0,1,1-.894-.892.893.893,0,0,1,.894.892" fill="#deecea"/>
        <path id="Trazado_200803" data-name="Trazado 200803" d="M139.576,113.716a.894.894,0,1,1-.894-.893.893.893,0,0,1,.894.893" fill="#deecea"/>
        <line id="Línea_307" data-name="Línea 307" y2="61.538" transform="translate(136.64 61.952)" fill="none" stroke="#9ccce2" stroke-miterlimit="10" stroke-width="0.483"/>
        <path id="Trazado_200804" data-name="Trazado 200804" d="M151.726,123.264s-11.479,5.377-34.969-.119c-.386-.091-.223-1.093-.223-1.093l.223-2.262c.1-.725.508-.69.508-.69s22.475,5.179,34.461,0c0,0,.484-.085.5.64v2.82a.745.745,0,0,1-.5.7" fill="#472916"/>
        <path id="Trazado_200805" data-name="Trazado 200805" d="M140.066,124.97a.642.642,0,0,1-.634.65h-4.571a.643.643,0,0,1-.634-.65v-3.292a.644.644,0,0,1,.634-.65h4.571a.642.642,0,0,1,.634.65Z" fill="none" stroke="#c4c4c4" stroke-miterlimit="10" stroke-width="0.791"/>
        <line id="Línea_308" data-name="Línea 308" x2="2.419" transform="translate(134.228 123.116)" fill="none" stroke="#c4c4c4" stroke-miterlimit="10" stroke-width="0.791"/>
        <path id="Trazado_200806" data-name="Trazado 200806" d="M136.64,54.84s-7.368-2.862-9.1-5.713l-2.178,4.15,7.769,7.451,3.512-5.747" fill="#a0cee2"/>
        <path id="Trazado_200807" data-name="Trazado 200807" d="M118.636,20.306c-.411,1.781.37,3-.9,4.519-1.4,1.689-.894,3.45-.147,5.229a42.624,42.624,0,0,0,4.777,9.174,17.7,17.7,0,0,0,1.93,2.21c.119.113.718.495.746.651,0,0-1.21-6.815,2.392-5.882l.622-.035s-1.24-4,1.327-5.967c-1.217-1.566-.228-4.692.019-5.138,0,0,.6-2.815,10.795-2.463,0,0,8.352.7,9.408-4.133,0,0-3.234,1.408-5.2,0,0,0,2.469-.839,2.909-4.575,0,0-7.427,1.232-12.47.528,0,0-14.828-.528-16.217,5.882" fill="#1a1a1a"/>
        <path id="Trazado_200808" data-name="Trazado 200808" d="M126.571,39.132a2.027,2.027,0,0,1-1.279.458,2.952,2.952,0,0,1-2.827-2.9,2.7,2.7,0,0,1,2.421-3.062,2.543,2.543,0,0,1,1.833.736,3.672,3.672,0,0,1,.691,2.968,2.768,2.768,0,0,1-.839,1.8" fill="#e1a786"/>
        <path id="Trazado_200809" data-name="Trazado 200809" d="M125.542,35.132c-.126-.862-1.835.047-1.549.521a2.639,2.639,0,0,0,.733.65,1.276,1.276,0,0,1,.581.92c.009.05.025.2-.024.238-.219.168-1-.644-1.171-.813a1.454,1.454,0,0,1-.275-1.375.87.87,0,0,1,.932-.693c.393,0,.8.013.8.5,0,.011-.016.093-.022.049" fill="#d38d72"/>
        <path id="Trazado_200810" data-name="Trazado 200810" d="M125.024,36.056c.173-.191.353-.049.547.078a.827.827,0,0,1,.338.5,2.032,2.032,0,0,1-.152,1.453,1.091,1.091,0,0,1-.916.545c-.528.008-.706-.45-.748-.895-.01-.118-.033-.4.081-.48s.222.106.308.186a.74.74,0,0,0,.455.148.951.951,0,0,0,.768-.386.534.534,0,0,0,.073-.14c.013.292,0,.359-.037.2a.841.841,0,0,0-.109-.2c-.131-.2-.346-.326-.488-.511-.07-.086-.206-.394-.12-.492" fill="#d38d72"/>
        <path id="Trazado_200811" data-name="Trazado 200811" d="M124.26,54.509l8.932,31.377-1.325,57.01s-13.88-.849-19.944-6.338l4.277-33.3L107.515,64.4Z" fill="#1f2127"/>
        <path id="Trazado_200812" data-name="Trazado 200812" d="M124.26,54.509l8.932,31.377-.038,1.49L121.9,75.861s-1.183-2,.418-3.181l2.657-2.542-1.9-1.36s-2.658-1.289-2.335-3.706l.761-9.086Z" fill="#2f363c"/>
        <path id="Trazado_200813" data-name="Trazado 200813" d="M144.043,54.729l10.172,4.781s5.789,1.529,4.605,7.527l-3.345,33.228,1.675,35.207s1.434,6.543-10.36,5.434L142.619,85.04Z" fill="#1f2127"/>
        <path id="Trazado_200814" data-name="Trazado 200814" d="M142.863,55.158a9.369,9.369,0,0,0-4-4.835l.435,9.035s1.843-4.622,3.565-4.2" fill="#a0cee2"/>
        <path id="Trazado_200815" data-name="Trazado 200815" d="M143.164,59.358l-.3-4.2c-1.015-.248-1.921,1.172-2.661,2.336Z" fill="#74acc7"/>
        <path id="Trazado_200816" data-name="Trazado 200816" d="M135.916,57.243l-.273-.508-1.852,2.843,1.592.568Z" fill="#8c6df2"/>
        <path id="Trazado_200817" data-name="Trazado 200817" d="M140.2,57.493l.521-.8a2.139,2.139,0,0,1-.1,3.449,9.23,9.23,0,0,0-.422-2.653" fill="#8c6df2"/>
        <path id="Trazado_200818" data-name="Trazado 200818" d="M135.916,57.243s1.57,1.4,4.286.25a3.21,3.21,0,0,1,.421,2.653l-1.407,2.9H137.25l-1.867-2.9s-.193-.64.533-2.9" fill="#5038a1"/>
        <path id="Trazado_200819" data-name="Trazado 200819" d="M137.251,63.049l-1.589,41.532,3.316,6.451,2.706-6.418-2.468-41.565Z" fill="#8c6df2"/>
        <path id="Trazado_200820" data-name="Trazado 200820" d="M144.043,54.729l2.622,1.234,1.894,8.748s.949,2.265-.425,2.857l-2.471,1.442,3.484,2.2a2.015,2.015,0,0,1,.705,2.841L142.863,87.7l-.22-2.332Z" fill="#2f363c"/>
      </g>
    </g>
  </g>
</svg>
